<mxfile host="app.diagrams.net" agent="Mozilla/5.0 (Windows NT 10.0; Win64; x64) AppleWebKit/537.36 (KHTML, like Gecko) Chrome/134.0.0.0 Safari/537.36 Edg/134.0.0.0" version="26.1.0">
  <diagram name="第 1 页" id="05Jr2n2RiZ_AcwptHlYH">
    <mxGraphModel dx="1186" dy="485" grid="0" gridSize="10" guides="1" tooltips="1" connect="1" arrows="1" fold="1" page="0" pageScale="1" pageWidth="827" pageHeight="1169" math="0" shadow="0">
      <root>
        <mxCell id="0" />
        <mxCell id="1" parent="0" />
        <mxCell id="MN7AuwDdjrwUS2G59RN1-2" value="MQTT服务器" style="rounded=0;whiteSpace=wrap;html=1;dashed=1;dashPattern=8 8;" vertex="1" parent="1">
          <mxGeometry x="49.5" y="239" width="159.5" height="39" as="geometry" />
        </mxCell>
        <mxCell id="MN7AuwDdjrwUS2G59RN1-3" value="基础设施mysql redis" style="rounded=0;whiteSpace=wrap;html=1;" vertex="1" parent="1">
          <mxGeometry x="442" y="176" width="120" height="60" as="geometry" />
        </mxCell>
        <mxCell id="MN7AuwDdjrwUS2G59RN1-4" value="后端" style="rounded=0;whiteSpace=wrap;html=1;" vertex="1" parent="1">
          <mxGeometry x="302" y="110" width="120" height="60" as="geometry" />
        </mxCell>
        <mxCell id="MN7AuwDdjrwUS2G59RN1-5" value="前端" style="rounded=0;whiteSpace=wrap;html=1;" vertex="1" parent="1">
          <mxGeometry x="61" y="27" width="120" height="60" as="geometry" />
        </mxCell>
        <mxCell id="MN7AuwDdjrwUS2G59RN1-6" value="设备" style="text;html=1;align=center;verticalAlign=middle;resizable=0;points=[];autosize=1;strokeColor=none;fillColor=none;fontSize=16;" vertex="1" parent="1">
          <mxGeometry x="-89.5" y="87" width="50" height="31" as="geometry" />
        </mxCell>
        <mxCell id="MN7AuwDdjrwUS2G59RN1-7" value="" style="rounded=0;whiteSpace=wrap;html=1;fillColor=none;dashed=1;dashPattern=8 8;" vertex="1" parent="1">
          <mxGeometry x="-115.25" y="122" width="111.5" height="332" as="geometry" />
        </mxCell>
        <mxCell id="MN7AuwDdjrwUS2G59RN1-9" value="" style="shape=image;verticalLabelPosition=bottom;labelBackgroundColor=default;verticalAlign=top;aspect=fixed;imageAspect=0;image=data:image/png,iVBORw0KGgoAAAANSUhEUgAAAMgAAADICAYAAACtWK6eAAAAAXNSR0IArs4c6QAAE7ZJREFUeF7tXTtyG0kSRYPNiDXGGHO9kWyCEbqBJG9vIfEEa67JobnmnoDUSUTegBEEItYTJ2IPsD4gYpGYKm6p1d3o7nr5qeqCww+q65OVL19m1qerRfmwSuDdu3dvdrvdm8Vi8YEa2u/3v9HPqqrof/T38af/2/3v2Xeqqqrj7/v9/vV/y+Xygf6u6/r58fHx9f+sA5lp5dVMxw0fNgHh+/fvH0jhCQRO4Y+g4PwEwLmndjx41uv18e/yiZNAAchE+YWAOBj464nVsD3mgHNPgHl6erpjayjzigtARkzwarUiRiCW+BS6RCOqUCtaADNN9AUgJ+TmYojPFlli2pS/xjP3VVV9Ka5YvxQLQFrkkyMoutSAmIWAcmDG+wKWn6VUABLIZLVa/Z6i+zSVSZrPebCs1+vfUXWmXs/sATInthiqrAUo/5fUbAFSgHEaLgUoi8XsAFKAcRoYXa5XXdd3c1uYnBVAKMbIKRs1XtXjnpgjo8wCILR+cVjdvk1t7SJOnfmedkC5mkPWK2uAFHeKDyRU82Fbzd35+flNzm5XtgAp7hQvOHztubtd2QHEscat3z0royalFQLK+fn5x9zYJCuAuL1SX4u66kggRzbJBiDFpdIBRUerN7msxicPEMsulbOodKDpwQW1f6mq6h8xqrzf7/+5XC7//fLy8p7qkTp3MrbPubhcSQPEmksVbPxbtFnQy8vLz5RuHqtsYfmqqq6a5zv82RQCjSXA5OByJQsQCy6VVwA6FjvkUBIXQJqAawCGtuprf5J1uZIEyMXFBS36qUz8WFCEmikFkLBNQ2BJEiTJAWS1WlGWiv2sd9d+pJjgUwMgbWChLf1KMrzbbDZX2nQ2pv2kAKIEDrr8gKxf9CUI2gBpgmW73V5LMzEx8GazeTtGSTXLJgEQpUzVDXr3qiWAeKXT2I6TUobLPEBoArfb7VfBjYZsvrJFgGgBJRWQmAaIJHNI7FAFpaU/Ity9LrdFWubWt6eYBohEzCGZq08BIB44xHYvLy8UoxxvfuT6WI9JzAJEAhwu+Ba9oODi4uLbVKWTVibB+IRuVPnIBcKYek0ChBscEu5U16RELnCyxUd9SiRx4IzOllhMAZsDiMAioLq1msIi0uzRtjovkBZWMQB9xsEUQCKt6xAmNTEBEy0ya3A+RHhUZi5z5OVhBiCgALZ1njVdqh5Xa9A5eYt950y9WxuvGYBMcTuGWD1t1+RUH8mlpG0fHYG7CcZrGwM3SKystpsACGNQrh5vnAKI/94x6PF8x9nZ2X0KR1c510ysBO3qAGH0aZMBx1AQWSzHnApWZ1BVgHDFHVasj0WF5ugTF0gsxCPaAIFvXS/g4IDAsDo5vAHtGFINIEzrHcWtGqbLLKUYmURtEVEFIEyuVQEHi9qPq5QjcNd0tbQAAnWttGl4nArlX5oLJBqpX3GAIM5EhCpWwGETcBzrJG03unCPXhwgq9VqDx6UiS0Y4DFlUZ1jkm+owWgYQ1GAMATmBRwo7WOqh8FjEA3YxQDCEJiXoJxJqdHVpmwYJQECC8w1qBatNHOqjyEeETOOIgBhYI9kXStyOQgc/m7d8H4qv2GRDACVoRsbHZCOd/vSu8zrun5OYZ9W0wCg45HDfcciOiAFEBh7aByTjbH27uzH8aK2qUdtW9qnO7oe0NcSxYxzyLPgeESERdgBArYcIkIZMtl9ZZxLcQ0GRVeTyYCFYX2EnUXYAQIO0NgFEgMO50oegRFTT8SzsFsgI/rQ+yjS3ZbYd8cKECR7SAhjqlIYAEaz6xSrXFmNVVBGU2ILCitAUIKg2a/r+q3FCUeOcSpAu56z+hbalAwnK0CAq+bqB2eaSoh0FdDAaNansUXj1JhQATt3yp8NIKkI4NREtn3PeER4SncGPWONTZBrI5wGgA0gKCXiHPwgzQoKMWRhxnYhqry1C6NRRpTWh7huZuQECGRT4nq9ZuvjGG1LyaU6NS4r8RwyFuFaOGRRPqBlMBF75AQODx4rzAw8psuiKywAQd1xZcHS5QgOSyBBsQhXsA4HCEqhLKx7oMZyyuXR/N6CEQKmyuELyXCAoAarPXFzAIcHprasUSzCsU+PAyCT33/hJ0ybPYATpkkOg9u2kN1CZD053Cw4QBCLg9oBJGKyBmunnYIsQe7Q4aESO2g2hALE6iCHThKVA2ZVBjfr9hQ9u5/HV54dWPQNcHv80L6ogQTI2tA4BAoQRPyh6V4BJ6lXIWmMy+XyYcgl1S4Wot3B7yVAg7bAQ5HpjFP0uSG0/qABEh1/aLpX3K4VjW0IKPqUSuDlmmyr0qfAgvBA0HEIFCCI+EPLgjFnreCuy4n3ipzSxd7vtYwUkMFhbhYMICD0i17pEmoJanGzoXns1piD9TSzWqDx2ANIyvEHU2AOZ40us8/Rfy0WAY0FZphgDIKwwFqTguh7Q3lhFmyor0SKtd/vP6EyX2hffsQ4KCFBwXrMJ0+AaMQfDLGHODi8JqFBomGwEHEIEtwwBkEE6Bpb20E+r9dRMbdKyN2CWeIxdICYE5SxhQAEYYXR+eshE4KwVkE7KsrUNk6QH3+sGqVoQ+bDl0HEs6jzIRCAIDJYGnSOUiQkpY9RpL6yqLhKY14s6RMEIJYQP0bBEFRO7Wko0alxIpTMtSHOjAiPBLWz1wxApKkc5V5ZZI/AVYne2aDhZoHmBgJsFECiJ0I6QAdNAumPWtZKkEXExxib9EEZLhMAQQ3mlMKE3yPiD41+jxkjlQXFIuLZuVj3FzU3EIAA0C6+xSR2ApyiiivOWIAgDAHntTo96eronb0Ir2S2AAFZVnHXYwJATK1MD+0/IvFjAiAgX17cEgNY71njtcRDFSwshzAGCGUb03cE8yESP9EMkiJAEH3WWNgco2ANgNwe3lZ1fLPV1A9C2ca0nQ1ALOWsh05Ain0eOra2cgh3RTpbhwAIos/RDIJQNumFNkSfUQtRMYo/9Fkryja0v1QOtNAZHSMWgIyZtR/LisdNU7tqRdnG9N9Kn2cJEITwpVlvjHI1y6Y4Xit9niVAEC5WSgApLtZ082ICINL+PAIg0n2ePsWwu76i/fkxY0AwiIkgHZEylVY2BEDmluZFKNsYgCBYD5GajmaQFAFCExW7UKix/WKMgoVlEdtqykLhROmnChDE6jLCQk0U++DHEPOD2vg3uNN/brI0sbgZzSAIa6zhriAAkkKgjvDlUwUIgvVMAETDXUFYKA1gj7HCznj9frgL+3rsc2F5jXFacQshAIm1xhoWCmVZz8/PPz4+Pj7HKCDns4BYi7onvigaq1PUaUsMYmLv/hhFQ2SyXHviyjN0nIhMkGtLNMWLcNtRXgmEQRB0KJ1GpElAWCmqx2KwjgjOaWwa7I7oO8otRAEk2s9VAkh0psQqiwDZQ5whEe4vyi1EAQRxai3ViThixBKLICywd+M0MnUIgKD6DQEIaEIg17QM9c99OZSbpfnKgHDMNBfb7fYr4hJrDffKub7RzI4yWGYAkvJkBAp6U9f1nWZWCxQP+iGJszoqNkRksKgvEICgBqURhwCzWapKhbK8IRuhrPBYVkekps0BBGS5tCxWNKU3F9bOz89vJJkEJP/XYWgxOiL+QGWwoAwCypqoxCEMLEKyva/r+oobJC7+uz20R4kS5Ed87QPFglYBEp3J0rJaQBfxBwWl8SyXy5unp6c7pOb6uhDWtqNfKoYKNQ+oDBaUQUCZLOqTiuVCZn9alO7e5eXpZ/THAeMTA2sc+6YYe0QbWeo/Kv6AAoQqA/nBKnGI6z9iwbMPAEeg1HX9PMX14gaG67ia/C1uIIVlsVAKpulmoSh+IEUQWB4oVnFW+7jhkYDj2PgNrWW8vLy8J6ZArGuc6lcOskfGHxwMAqFILTfLgfzDfr+nrNabUwqV4fcq7q2XO+DttnAXHcogqDgEbQXGKjIoIze2We3yaq6VY25Iqh0Zf8AZBBWHaFO9sKulDQxqXy1r5QeP2PLDYVihDEKDBaYe1egeOWkWtL+vDxaMEUpnkOldLzM4QFBulgWrxpz6VceOBXCgvA6X6Hg7JTvYNxFwgCAHrBmse6HlChICB1nc9XoNWZuZinbULgYO94olBgFnJNR9YxpPbiCxwhzI4JzDvWIDCMrNsmLlMotJTBgdb3h2u923qewTPofOXrHFIIEyQdJ2XNQ5dVIQq71T2459LldZco6LJQZBulnWWMRn6l5eXq4TW0xUzwqGAEd5Ga5OtrGxAQQcrJtxC8LgfbfbcWwzjyWK5vMi2+7Hdhq0b+/YLJd7xRaDeGGh8tvcVmLs5IblKQtjcWuKReb1ckNlro4KXFVXXMcJ2AGCzP5Yyry0AYqMgQW3i/sMSowxCQASfdGgr4uTPdgB4v11srAIwaLuOgL1pbUaRUa5r6rqC6c1RcgN6VVws4cIQJDBmJWrdYYoinMjyP36xBnMUwZH+vz7kPF3lUFcyCDFHiIAYWARcwH7KYXxYDls535/UOjjOY9Tz3R9T4BYLpcPZ2dn9+htFVP7NPQ5ZGAu5U2wZrG84JAs4upU3Zo9VCG6yoUHoggwVO7ghv7WLH9wIf6oquqZwEDfpQaIcDzoIwTcsYfvuwhAqDHkApvlDE0seHJ8Hpm1csbkbrPZXEnISgwgaBaxntWSmLxU2gC7VqzrHj+xuKSQkRkMaUsiKaec2kKDQyJzFcpfjEF8o2iBSQVrOSmt1FjQrpXGGSFxgHC4WpyXs0kpU27tMICDRMS256pL/uIAoY6gMxolaLcFLw5wcO7Y7ZOeCkCQW1D84FJaRLSlztjeoD0E3zuptK5qkB42jg7YXdD+bP2ts1h1tFUbh+FzIxR3rbxkVRjEN45cGylMogsWxlvmVXdOqAKEy+IUd0sWLFzgsLDWpQoQmkYun7WARAYkXPOn7VqZcLF8JzjiER+TlBQwH1A4slVBb03st1NnEM54xIOEzkms12t6tUH5gCTADA7VuCMUkRmAcMUj1iwSSD9Vq0GvY4WDsRB3mAQIZzxSMlwYPHEF443eqaV026RkhkF855ipm85d0JWbxeUaiRnuebESlDfFYg4g1EGuoL0xeBNB4Eg9VSnO6VIFAzLFHKayWG2zLjEpKdwAooII16jUBRTSW9jHyNQkgwTuFvdLNX1TJi9XGzORyLJCsYbvsmkmNw0QkqAEk1A7JTZ5XbT9fBDHNRJwPXWZSed29dE8QJw1E5u0uQJFyhAFimgeHNRX8wBRcLeOTc4BKNLGx8+l1tmOKayYDEAk3a1QkB4odV3fpXztTjgmLWC4PpiOOZJI8/YhXcEVeGUUOhNNl7ZZv96zS34uK0U3PZLLKv6xnK1KNgZp67jQOkmnAhGrpAKW4FZHqcC7S24m1zlOWYmkXKymm7Ddbr/GXON5SjhDvg/BQr9rvxQzcJ+o+9qg8LGc+stCh8xlW5lkAUKDcRsc6U1PKi5Dm0ClAeMBQVeXWpKDk00Smao+8CQNEA+S3W4nlgaeYolcoP/sVu4ffJaMftZ1Te7aD/fuktL7dna73fF3Ykp/jy9dgn1w8T5M6YvgM0kF41nFIG2DEdguL6hb6TaV2xVMyTNIS1xiyuVKV9Un9Tx5l6o56qwAkorLNUn17D+UhUuVPUD8AC0G8PZ1fFIPs97omR2DNKfYyss1J6me4YdyizWyD9L7dEl5a4VhNZ/ctSzdqTZpZM8gJYifDIK2B7N2p2YPkBKfTAbL7IDhJTUrBmmqR3G9TgLmJqddzCdH21Jg1gAJGcX6avyUyY14ZvbAKAzSoj0Bo6SwlSNC/39+dA4HxKYIrDBIh9QCsPx9sVj8OkW4CTzz38Vi8a+5u1F981QA0iMd5pvLTeCnruu3uZyU5BBoAUiPVLVOL3JMdE+ds1nTmCLXApB+F+vbFKGm9kxhke4ZKwDpkE0C7PGfxWLxVzpSAgBkYZEOIRaAdGezUOxxVD4Xz7wefvLN+kNQdCIw7MrhgoM/XlONVXU8VOVOKy78sV4kiAuLtCOkAKRFLkjF43x9MfiQWGGRFl0oAGkIBZy5Ylc6JJgLi/yMkAKQhkyQCsfJHr7bhUUAEVhPFQUggXBSYw/fdSSoC4v8iJYCkEAeSEWTYI/CIrzsQbUXgDgZp8oehUV4QVIA4uSbKnsUFikA4ZWAu6Fxt9tB1z3YO82cni6xyJ8CLgwCfouVZOzRxEjJaOHN0uwBknrs0VQJpKtYWKQwCPQdiJrsUWIRPHvM3sXKjT1KRgsPklm7WEh3xAJ7FBYpAIFJIFf2KCwCU5F5Z7FyZY/CIgUg0RLInT0Ki0SryGsFSccg4evHxoikqqp3tD445pmusvTOb0Q9THX8UlXV3xaLxS+A+h/3+/3j2Hqqqvqi/d7GsX0OyycJEPc641vtF3jGCH5Oz6Z851ZyAEHGDnNSUiNjZT9Ahh5nUgAp4EBPv0p9SYEkGYCQW3V4u+tXlSktjaIl8DGVuCQZgFxcXFDMYeZ96GiNmVl9ybzsMxmArFar/cyUKNvhUtC+2WzepjDAJABS3KsUVGl0H5NwswpARs9reQAkgQIQkCBpS3oJ0FHCtFNPAQhqLsBbQ1DdKvVESCCVw1hJuFg0D6vVilK8xCTlk74EShYLPYeXl5efDxc836LrLfXJS+BwMffV09OT5T1sr0JJhkEKi8grMlOLybAHjT8pgIBv7WCa/1JtlwRSWv/wY0gKINTp8m7zZAGYFHMkCxDfcccm127LewneDeLGb3NP+S26/wOCpOebQNrGmQAAAABJRU5ErkJggg==;" vertex="1" parent="1">
          <mxGeometry x="-75.5" y="138" width="32" height="32" as="geometry" />
        </mxCell>
        <mxCell id="MN7AuwDdjrwUS2G59RN1-10" value="摄像头" style="text;html=1;align=center;verticalAlign=middle;whiteSpace=wrap;rounded=0;" vertex="1" parent="1">
          <mxGeometry x="-89.5" y="180" width="60" height="30" as="geometry" />
        </mxCell>
        <mxCell id="MN7AuwDdjrwUS2G59RN1-11" value="" style="shape=image;verticalLabelPosition=bottom;labelBackgroundColor=default;verticalAlign=top;aspect=fixed;imageAspect=0;image=data:image/png,iVBORw0KGgoAAAANSUhEUgAAAMgAAADICAYAAACtWK6eAAAAAXNSR0IArs4c6QAAD3pJREFUeF7tnX1ynDgQxcH4IM49THZ8kuycZOOTrHOSsMb3yBzENrs9BanZqQG1Wk8IpDdVqfxhffXr/ukbqCv+qAAVmFWgpjZUgArMK0BAGB1UYEEBAsLwoAIEhDFABWwKcASx6cZchShAQApxNM20KUBAbLoxVyEKEJBCHE0zbQoQEJtuzFWIAgSkEEfTTJsCBMSmG3MVogABKcTRNNOmAAGx6cZchShAQApxNM20KUBAbLoxVyEKrArI4XB4eH9/f6jr+qEQfWkmUIFhGE739/cnKbLruvP/sX9RAWnb9s+qqv74z55DVVWEIrY3yyq/q+v6n8/Pz06giQVMFEBGMP4iFGVFbEJru6qqfjRN06FBgQLy+Ph4qOv6b4KRMFTKrrprmuaIhAQGyAjHz7L9Q+s3osCx7/sXRFsggIxTKhk5+KMCm1Cgruvn19fX76GNCQaEcIS6gPljKYCAJAgQTqtiuZblohRomuZLyJokCJC2bQeUISyHCkRS4NQ0zZMVEjMgX79+/T4Mg2zlan5yqPMs23CS2NpYTUVMk7cCMmu5u7s7DMPwTbtbGjLVMgEiJ+IfHx+/NK4IaZymfKYpV4Gxk9aAYh5FTIBoR49hGJ7e3t7OowZ/VCCGAh6H0qatXxMgbdvKeYdcH5n9ceSIEQ4s85YCyg77pe/7o6+CVkBci/NT3/dffBvD9FTAqkDbtjLlX7zvZ9nR8gZEs7XL0cPqZuazKqA5j7NM+b0B0TSk73vvcq3CMB8VmBRQHDt4r0O8A1kx3+P0ijGbRAHFNIuAJPEMK92EAi5ALFN/jiCbcC0bgVCAgCBUZBnZKkBAsnUtDUMoQEAQKrKMbBUgINm6loYhFCAgCBVZRrYKEJBsXUvDEAoQEISKLCNbBQhItq6lYQgFCAhCRZaRrQIEJFvX0jCEAgQEoSLLyFYBApKta2kYQgECglCRZWSrAAHJ1rU0DKEAAUGoyDKyVYCAZOtaGoZQgIAgVGQZ2SpAQLJ1LQ1DKEBAECqyjGwVICDZupaGIRQgIAgVWUa2ChCQbF1LwxAKEBCEiiwjWwUISLaupWEIBQgIQkWWka0CBCRb19IwhAIEBKEiy8hWAQKSrWtpGEIBAoJQkWVkqwAByda1NAyhAAFBqMgyslWAgGTrWhqGUICAIFRkGdkqQECydS0NQyhAQBAqsoxsFSgakMPhsPiR+Gy9nrFhXdedkOYVB8j4yelvVVURDmQkbausY9M0HQKWogBRfI99W25ma8wKWD7PfKuyYgCR6dTHx8cvs+LMuDsFmqb5EjqKFAMIR4/dxTeiwce+719CCioGkLZt/6yq6u8QsZh3XwogplnFAPL4+Hio6/rnvlzM1oYowCmWp3qcZnkKtuPkiNFDzC9mBJl8zW3eHUe9sukoOIoEZNKYh4TKaNtZstBdq2tzixtBduZvNjexAgQksQNY/bYVICDb9g9bl1gBApLYAax+2wpsAhDNIV7f9/W2pWTrclSgbdvBYZf3ab13IGsO8RCHPjk6kDbFU0Bzf28Yhqe3t7fOpxVRAEHubfsYw7TlKqA5WLZ03N6AaA5kJI2lMeW6l5aHKKAZPaqqOvV9/8W3HisgcpFQLhTO/jiK+LqC6a0KtG0r9/YOMeLRCojqtq1Acnd394I+MbUKyXz5KdC2rbOzHq32XqBLPhMg2mnW2LBuGIZn38VRfq6kRUgFxs2iv1wjx1inaXoVBIhmN+tKkK6u63+GYYA+qI8UnWXtQoE/RijU7ymw7F5NSphHEM9RZBfKs5FZKtD1ff9ktSwIkHH3QBZIapqtDWU+KmBQwDy1gowgUgghMbiNWVZRIGRqBQNEChrXI7KbwJFkFdezEocCp2EYjoiNoaAp1mUjOZIwaDeiQNc0zRF1tAADZBJn3JeWQxuOJhuJmFKaEeNwGg7Ixbpk2qMmKKVEaDo7X5qmeUaNGpdmRAHksgJZn9zd3R2GYZD96wkWQpMumPZes5yjnf8Nw/ADsc5YEiQ6IHv3BttftgIEpGz/03qHAgSEIUIFFhQgIAwPKkBAGANUwKYARxCbbsxViAIEpBBH00ybAgTEphtzFaIAASnE0TTTpgABsenGXIUoQEAKcTTNtClAQGy6MVchChCQQhxNM20KEBCbbsxViAIEpBBH00ybAgTEphtzFaIAASnE0TTTpgABsenGXIUoQEAKcTTNtClAQGy6MVchChCQQhxNM20KJAVE3ngizb6/vz/FeGWLTZI4uSZbY7+FI07ryy01CSAzb2Fc5Tsi8pXeuq4fPj8/uzXAvPH1I/mI5I+mabrcO4UcsFodEMX35KKAMvc9k5hfwXJ8Gkze7fRMULaN0eqAaL5GKpIhA1cBpVQJfTufsk6pF/ou2W2H2/5atzogmg8uXsgICR4tlPK2vqZpnhBTH486xVxYvSlDcOwULj+LJnbBXiSdwratAwIJHk8oK8R3JWStU1WVfBLC52f60KRPBbHSLo2Ye/4keApALIET1MN6fAn1d/yEvinc+jmIvQaTQ+Ogz6DFglpT7uqASKPatv3l+3mEkIA1fHD0rF1osHpOsyZ/BXUGGqej02jWW6FaotusLS8JICMkMv3w+o5ICCSpgtXy9a0QO7WOR6YjIEg1r8oaA/ebdkQJ6Yk8v619bikqWA2g7GY9QkAiAiJF+8zXEQFrAAUWrB4j2W7m7QQkMiBT8crdJtgcPVWwautF7Kat4ToCsobKfiPJ6j16yNTulnxKSF76vj+uJL+5GgJils4/o/L8ADr9UG4Dw4NVs5uHBtPfI+4cBMStETRFisBJUadyFIGNllAnXRRGQGIpO1OuZhRBz881wYquc9zudp0JwUcutDsJCFpRRXlt2w6OZNCeVbmTBq3z4jxIbhfM/aDTyctKxo5IrtacQq7+rwHI2o8pTDolOyh0MaKY8sB71kR1yoHpEiBV3/dQP82cychnlY+WB7piAjJCLBcgrz8dDu+sbsUkVHhX0Pv8XbFwhvesiep03k1DAqIIZu8b1Ioyva/taM6q1tjA2DMg8BFEsQ459X3/xQd0V1rNegsJiMLGqcnq52PQgCg6qt9tjL0NvmVAfo53teZirBRAoFAqD2MvNT+6nnpEAaLpLK6CAT6LuA623QKCuHJyLYaid4U7RFEnGhDnmudGj7T4GHQoIJrp1EwvCffHLgDRCB4DEMXQDneIokeHAmK9+j8Gzs31icZft9YLY77pVrdrNnrr79EX6pscQRS9qogFF0extQyd1mkCS55Z7/v+yRI9c3kUHcFiddfvC9DYcQ1IaBti6LKbXSzFdmusrU9Z98z+0KOWpiNA1zkZt7B9qmXx91tZJMPHx4cceM7+JkAM64wkI8dU6eZGEE3QxOg9FFMdKJSaXlechNzBuhVpY0/u9eDa9UJZ3vOleP5eLl3Kcz/nlwUaf9ARXNOGTQGiDRp0r6rs1aBrAQ2QMTqCW0ERsEjWxBgiTZR3pWkatilAlEEDDdQUUCpHySjrrKWgMDz1qImxkDTm0/2QSi/zbgYQbdBEGD1c5y1nvVBTHS2Q8q4s9KGkNmh8H4PWluuZDr4J41n/OfkmAEkVNCmgVI6SkHdzWQJiynP1Erjre1AhRbvyqk/wXQUh/r4JQDS7VmIs8rp5CihTABkaJCuuT5KtM5Y0Sg5IqqBZG0qPA7pkU6ulQAFsC88Vn3ydsVlAUvTiIkYKKNcGMnTkmMsP2Bb+XTR6PRnD5qQjiDZQ9z610nYEewgY4JQL9naaGGBMZSYDJFXQpIBSea0CfqUEHThKO3yr3dSi/LrxyQBRBio8aBT3rWBvUxSxlR3BJtcdU7AoD1J9wbhO77xWH1qBJX8yQDSBin5iTAklNFg1dW51agWcTmljc3M7WUkASdWras4gkOsdiQpNnahDSG0UutIBrqG7qnD93fuxX1eB1r8nAUQ5ZMNPUhWjFnT0GAFZfDvL1kYPzYhnDTbffMjP8PnWnXSRrnACPFCVoxYUSk2d6BHLGggRzzmsTZryna/V933/ElqQJX+qEcR1/wm+OFdACbtvNTkiRZ2+QQBaZ8inrV3X2CWNXFmxXltJsj5JBcjq0w7FWgA+aim2ReF1agEBrTPOQSsvndM8MPX+/v5Q1/XlRz61zb1Mt+q28CYBiTHtcAESYy2gAGT1B4Ak0jyuvcwF8P+uh2imkpc7kohr9TFi5JaxJQGy+A7cSIC4ppKrA6IJ5qVu/ZZOmjJvbdmHXqtHHwNsAhCNmDF6B8VdKOgCXbPFGwNK15xFsy6aKWN2aqPx6VwwX1yrX3z96s3grevn19fX7y6bQ/6++giiEbMUQP5bsK4+grimmjeCybk41vjU1dsbNwvgmznX9q8OiOZsINIrfVyfGYgxgrhe0hbdwdcO9wBEfQ0dAcjUTp/t5jVG4FSAuIIV3rMqplgx6nQBsvouluaQ1jfwkIBcgOL8THiMmcZWRhBX4MB7VsWOUow6nW9ud009QubPc3kX1iGmLdQYgEjbHesTeIe2iUX6OMVyAeL9unxXIGl6TnSwarZTfXtrl53av1/M+SWLTKd+WL4NchHIqhfHadt3mW5sq7xTSw4Zg9rqW3+qKZazZ0UHjgaQRGufzVzM8w2eKX2sEcTaHmS+JICMo4hrHQIdRUYnyrnE0lWHGNMs52iJ7gyQAaIpi4BoVPJMo1gTSInQgNXUiQ5WzTRLDEVP7zzdEZScgATJdzuzNnCQAaucZsGDVbGDdu4MmqY5dl0nt1d39SMgkdylDBzoI7DKOqEvFPA4vd4lJAQkEiA+l9ZQI4lHsEIhUYJ53lFqmuZpTyMJAYkEiBTrEbCwqU+KYE3RGUR02/+KJiCRldYGLGoU0a5/xGxUnZ6dAXRzIrL7VG9u2esmRLJt3kunKbdgswhWZWew+hWUEIg0I8jWXkyhtXcTgEhjNVMQZG+uPYuJ8RkCBSS7AkSh5e7smQDaDCAKSKKIrAjWKHd+lupd4xKetgfVpltaS+7Rnk0CsgCJ+uq11qGX6ZaCNebceebqOfzavUUTS56ZJwR3a895DWoRYo0845TrYRiGk/USnU87b721fI2eb7JT2to0Tben7d05fcUmeZFDDrZsFhCf4EallcWmvHkjF+eidCm5HAJSsvdpu1MBAuKUiAlKVoCAlOx92u5UgIA4JWKCkhUgICV7n7Y7FSAgTomYoGQFCEjJ3qftTgUIiFMiJihZAQJSsvdpu1MBAuKUiAlKVoCAlOx92u5UgIA4JWKCkhUgICV7n7Y7FSAgTomYoGQFCEjJ3qftTgX+BTrF1m4KVN2yAAAAAElFTkSuQmCC;" vertex="1" parent="1">
          <mxGeometry x="-75.5" y="239" width="32" height="32" as="geometry" />
        </mxCell>
        <mxCell id="MN7AuwDdjrwUS2G59RN1-12" value="物联设备" style="text;html=1;align=center;verticalAlign=middle;whiteSpace=wrap;rounded=0;" vertex="1" parent="1">
          <mxGeometry x="-89.5" y="273" width="60" height="30" as="geometry" />
        </mxCell>
        <mxCell id="MN7AuwDdjrwUS2G59RN1-13" value="" style="shape=image;verticalLabelPosition=bottom;labelBackgroundColor=default;verticalAlign=top;aspect=fixed;imageAspect=0;image=data:image/png,iVBORw0KGgoAAAANSUhEUgAAAMgAAADICAYAAACtWK6eAAAAAXNSR0IArs4c6QAACbFJREFUeF7tnIGNE0kQRZtIDiIBIjmI5LhIgEjgIgEiudvS7UgW2gW/mp5xueuNhABRPT31fn9+t9f2i+ElAQk8S+CFbCQggecJaBBXhwR+QUCDuDwkoEFcAxLIETBBctwc1YSABmkitG3mCGiQHDdHNSGgQZoIbZs5Ahokx81RTQhokCZC22aOgAbJcXNUEwJVDPJyjBG/4rr8cxMZbPORwPeL3+PP299vBuhWBgkTvHvs+q+bde/E1QmEQb6OMf55+I/z0y0e9myDvBljhCHidy8JUAJhmL/PNMtZBglDfLzYRlEw1kvgksBpRjnaILGVCmOYGC7wIwiEUd4eeVY50iBhii9HUPGeErggECb5/PD3D0dQOcog8bAevo9QzHs+RyDOJtNNcoRBIjXcUrmQb0EgXvGKLde0a7ZBNMc0abxRksBUk8w0iNuqpKIOm05g2nZrlkE8kE/X2BvuJDDFJDMMojl2KunwQwjEq1vvH38Sn55ghkE8d6TxO/BgArvPI3sNEu+nih8EekmgKoF4VSuMkrr2GsT0SGF30IkEYqv1KjvfHoOYHlnqjjubQDpF9hjkm28+PFtn50sSSKfIHoP8m3xYh0ngFgRim4U/gJU1iNurW0jsnHsIpLZZWYPEK1fbJwL3PLRjJXAWgdRLvlmDeP44S1bnmUUgdQ7JGCQ+BBUG8ZLAvRHA55CMQXxryb0tC593I4DPIRmDeEB3wd0rAQ1yr8r53KcQiDcvoq8PyiTILT73sX2JWHw/0h+PP6Cc/anFVeY4ZaXd6ST4LfD3YJDnmooXC+K9YNs3Mu7RbJU59jDoMHY5g/xuzzjja4VWmaPDAt/b41IGib1i7Bl/d+152XmVOX7HyH//n8BSBiHbv+y5aJU5NMB1BJYxyLX/s29YMj+bWWWO65aGVUslCF28mW3WKnO49K8nsEyC4EYevsmRvv1+lTmuXx5WYs3JHnzDm93vE3lwIxqE4G1bi9eVBmFrpWJKsQ56V2sQoD+GVTSlQMvtS7HmJghbMyYI41WtWoMARTAsEwTQrVmKNTdBmJAmCONVrVqDAEUwLBME0K1ZijU3QZiQJgjjVa1agwBFMCwTBNCtWYo1N0GYkCYI41WtWoMARTAsEwTQrVmKNTdBmJAmCONVrVqDAEUwLBME0K1ZijU3QZiQJgjjVa1agwBFMCwTBNCtWYo1N0GYkCYI41WtWoMARTAsEwTQrVmKNTdBmJAmCONVrVqDAEUwLBME0K1ZijU3QZiQJgjjVa1agwBFMCwTBNCtWYo1N0GYkCYI41WtWoMARTAsEwTQrVmKNTdBmJAmCONVrVqDAEUwLBME0K1ZijU3QZiQJgjjVa1agwBFMCwTBNCtWYo1N0GYkCYI41WtWoMARTAsEwTQrVmKNTdBmJAmCONVrVqDAEUwLBME0K1ZijU3QZiQJgjjVa1agwBFMCwTBNCtWYo1N0GYkCYI41WtWoMARTAsEwTQrVmKNTdBmJAmCONVrVqDAEUwLBME0K1ZijU3QZiQJgjjVa1agwBFMCwTBNCtWYo1N0GYkCYI41WtWoMARTAsEwTQrVmKNTdBmJAmCONVrVqDAEUwLBME0K1ZijU3QZiQJgjjVa1agwBFMCwTBNCtWYo1N0GYkCYI41WtWoMARTAsEwTQrVmKNTdBmJAmCONVrVqDAEUwLBME0K1ZijU3QZiQJgjjVa1agwBFMCwTBNCtWYo1N0GYkCYI41WtWoMARTAsEwTQrVmKNTdBmJAmCONVrVqDAEUwLBME0K1ZijU3QZiQJgjjVa1agwBFMCwTBNCtWYo1N0GYkCYI41WtWoMARTAsEwTQrVmKNTdBmJAmCONVrVqDAEUwLBME0K1ZijU3QZiQJgjjVa16GYN8HWO8BXTfjTE+gvooXWUO2Hbr8mUM8n2M8QpImTHIKnMATO1LlzFIKPlpjPH+CklfjjG+XVH3VMkqcyTbbzdsKYPE//DRUCziX11fHrZLb5JSrzJHsv12w5YySKgXC/jzwx8+PCFlmCLOHZEge65V5tjDoMvY5QyyCReLePv1Y4zxekdqPLcYVpmjy2LP9LmsQTIwHCOBnwloENeEBH5BQIO4PCSgQVwDEsgRMEFy3BzVhIAGaSK0beYIaJAcN0c1IaBBmghtmzkCGiTHzVFNCGiQJkLbZo6ABslxc1QTAhqkidC2mSOgQXLcHNWEgAZpIrRt5ghokBw3RzUhoEGaCG2bOQIaJMfNUU0IaJAmQttmjoAGyXFzVBMCGqSJ0LaZI6BBctwc1YSABmkitG3mCGiQHDdHNSGgQZoIbZs5Ahokx81RTQhokCZC22aOgAbJcXNUEwIapInQtpkjoEFy3BzVhIAGaSK0beYIaJAcN0c1IaBBmghtmzkCGiTHzVFNCGiQJkLbZo6ABslxc1QTAhqkidC2mSOgQXLcHNWEgAZpIrRt5ghokBw3RzUhoEGaCG2bOQIaJMfNUU0IaJAmQttmjoAGyXFzVBMCGqSJ0LaZI6BBctwc1YSABmkitG3mCGiQHDdHNSGgQZoIbZs5Ahokx81RTQhokCZC22aOwCkGeTfG+Jh7PkdJ4KYE3o8xPpEneEGKH2vfjDG+JMY5RAK3JqBBbq2A85cm8HaM8ZU8YSZBXo4xvpFJrJVAEQKvxhjfybNoEELL2nsngNc7HvBIKM4gcRbxksC9EIjDeZxB0JU1iAd1hNniAgTwAT2eOWsQzyEFFPcREAF8/thjkBjrNgvpY/ENCaS2V3sN4jbrhoo7NSKAX97d7p7dYm3jTRGkk8U3IBA/9wiDpK69BjFFUtgddCKBdHrs3WKZIieq7FQpArvSY5ZBfEUrpZ2DTiCwKz1mGSTu4zt8T1DbKRCB3eaYaZC414cxxl+oBYslcAwB/LmP5x5j7yH98r6x1YrPifgWlGNE967XEdh97ricZqZB4r5hkthumSTXiWnVXAJTzTF7i7W1qknmiu7driMwbVt1ZIJc3tszyXXCWrWfwJQD+VOPMXuL9fMcnkv2i+8dnicQH36Kd+miTwkSoEcbZHuWOJf86QGeSGPtLwiEMWJLhb6AIUP0LINolIw6jvmZwGnG2CY+2yCXB/l4Ofj146teLgUJPEUgDBHbpx8P/xhn2tOvWxnkstE4p8QVv1/++XQYTliCwHaeCHOgL1g44ukrGOSIvrynBKYQ0CBTMHqTVQlokFWVta8pBDTIFIzeZFUCGmRVZe1rCgENMgWjN1mVgAZZVVn7mkJAg0zB6E1WJaBBVlXWvqYQ0CBTMHqTVQlokFWVta8pBDTIFIzeZFUC/wESfkL2wPnR+wAAAABJRU5ErkJggg==;" vertex="1" parent="1">
          <mxGeometry x="-75.5" y="339.9966564941406" width="32" height="32" as="geometry" />
        </mxCell>
        <mxCell id="MN7AuwDdjrwUS2G59RN1-14" value="RS485&lt;div&gt;传感器&lt;/div&gt;" style="text;html=1;align=center;verticalAlign=middle;whiteSpace=wrap;rounded=0;" vertex="1" parent="1">
          <mxGeometry x="-89.5" y="376" width="60" height="30" as="geometry" />
        </mxCell>
        <mxCell id="MN7AuwDdjrwUS2G59RN1-15" value="" style="shape=image;verticalLabelPosition=bottom;labelBackgroundColor=default;verticalAlign=top;imageAspect=0;image=data:image/png,iVBORw0KGgoAAAANSUhEUgAAAMgAAADICAYAAACtWK6eAAAAAXNSR0IArs4c6QAACXJJREFUeF7tnf1xHDcMR8+VJK7EUSWJK7FdidOJ7UqcVOLcL6Od0WgkHQgCtyTw9p98HMldPPCJ5H6+u7BBAAKvEngHGwhA4HUCCELvgMAbBBCE7gEBBKEPQMBHgBHEx41aTQggSJNEE6aPAIL4uFGrCQEEaZJowvQRQBAfN2o1IYAgTRJNmD4CCOLjRq0mBBCkSaIJ00cAQXzcqNWEgAT51iRWwoTAMAEJ8mu4FhUg0IQAgjRJNGH6CCCIjxu1mhBAkCaJJkwfAQTxcaNWEwII0iTRhOkjgCA+btRqQgBBmiSaMH0EEMTHjVpNCCBIk0QTpo8Agvi4Uet8At8vl8s/l8vlx+VyOf79j8fD0j8/XP//8d/uo0UQNzoqnkjg4+Vy+duw/7+ut1J9upb93VD2xSII4iVHvTMIaKSQHBo5rJvkkCSSZXibEeQY1oZ3SoWlCKgDTU9F7hCR+tvDxH4+P4oy1MSMIDpYHTTb3gT0l/Xr4iFoxHgfcIw/R6dbCBJAffMmdhDky5WxRoDZTSOl/hiY1yQIMot8//qrCxI1ehyZkiDm9QiC7N/BZyNYXZCo0ePgNBQvgsx2r/3rD3WYE8KNXutqmmV+zBxBTsj4YrtcXZCMF4uYF+sIslhvPeFwVhYkev1x4NUIYjq1jSAn9MjFdrmyIEKl07sjFwYteM0vKkEQC87aZboJolO8mmKZNgQxYSpdaHVBrPddWZOEIFZSlPufwOqC6KZESRK1Dd1ywggShX3fdlYXJHIdMjR6aMcIsm/HjjryHQSZvVHxYDU0ekQIEn12ISrptGMncDwzYa9xTsnZK+pDFwiPEGdGkHMwsdfOBLwLdpccsyNI50QR+3kEtGjXaGKdvQzdnPg8LEaQ8xLNnv0EJIckeeuhPU0d/7ReMX/tUBDEnyRqrkPgqSiaTpmf97gVAoLcIsTvrQkgSOv0E/wtAghyixC/tyaAIK3TT/C3CCDILUL83poAgrROP8HfIoAgtwjxe2sCCNI6/QR/iwCC3CLE760JIEjr9BP8LQISJOyy/K2d8TsEdiOQ8c6h3RhwvBB4lQCC0Dkg8AYBBKF7QABB6AMQ8BFgBPFxo1YTAgjSJNGE6SOAID5u1GpCAEGaJJowfQQQxMeNWk0IIEiTRBOmjwCC+LhRqwkBBGmSaML0EUAQHzdqNSEgQfRqRjYIQOAFAjwPQreAwBsEEITuAQEEoQ9AwEeAEcTHjVpNCCBIk0QTpo8Agvi4UasJAQRpkmjC9BFAEB83ajUhgCBNEk2YPgII4uNGrSYEEKRJoouGqS/eavvx5Ku3+kbhh8cXIk6/FBFBivac4mHpC7efDTGqjL506xYFQQyUKbIMAX3++ePj55+tB6URRTfkuiSZEUQHa/2YuzUYyp1DQJ1o9U197f3EQUoSfTt9aJsR5GHQ5KEDo/DdCKjT7PDIw2x/0wjybXQkQZC79cNld7SDINY1xy3IWpN8ulXo6e8IMkKrZtnVBZmdWj3P2tBUC0FqdvqRqFYXJGr0OJgMxYsgI12pZtmhDnMCgtm1x/ND1gkJrUVMG4KYMJUutLogGS8W+WldrCNI6b5vCm5lQaLXHwcQBDF1DQqJwMqC6PgyRhBNsUzXfhhBkGR1QXRxMPqC9C9r2hHESqpuudUF0a0lx02JEVnQBUNNsUwbgpgwlS60uiCSQ5JEbUMXCxEkCvu+7awuiKZXOtUbNc0yrz+OBZB5PvasD0Sfn963i+195KsLIrpRFwuHRg8E2btjRx39DoIo1tm1yNDa44A7M8WKShDtQMBCYGaq5bqTd3YEsQRFGQhEE9B0Swt365pkaoRkBIlOH+3dg8D3x3XJWw/t6UKgbm03XRB87aAR5B7pZB+ZBCSLNr244bdHIVyP1750kAiSmTra3p4AgmyfQgLIJIAgmXRpe3sCCLJ9CgkgkwCCZNKl7e0JIMj2KSSATAIIkkmXtrcngCDbp5AAMgkgSCZd2t6eAIJsn0ICyCQgQabuVck8ONqGwNkEMt4YcXZM7B8CYQQQJAwlDVUkgCAVs0pMYQQQJAwlDVUkgCAVs0pMYQQQJAwlDVUkgCAVs0pMYQQQJAwlDVUkgCAVs0pMYQQQJAwlDVUkgCAVs0pMYQQQJAwlDVUkgCAVs0pMYQQkiF7NyAYBCLxAgOdB6BYQeIMAgtA9IIAg9AEI+Agwgvi4UasJAQRpkmjC9BFAEB83ajUhgCBNEk2YPgII4uNGrSYEEKRJognTRwBBfNyo1YQAgjRJdOEw9cXbfx+/eqtvE364fgVX/wz5TiGCFO45hUPThzs/Gj4F/XX2XkMEKdyLiob2cH1d7vFlW0uIerWuRHGNKLOCWD/mbgmEMucRcHWeOx+u+prk8Pa5nx5JZgQZNfnOPNmdkYAed9Bf2NW32f6mPwLfRiVBkNW7Rf7x7SDIlyuGzwEo1MankXYQZIRWzbKrC6Ip1ftA9ENTLQQJJL9pU6sLEjV6HOkZihdBNu3VgYc91GEC92ttSqdzda0jatNZLa1FTBuCmDCVLrS6IBkvFjFPsxCkdN83BbeyINHrjwMIgpi6BoVEYGVBdHwZI4imWKZvczKCIMnqgugMlvfi4GvZ/WVNO4JYSdUtt7og0Yt0XTDUFMu0IYgJU+lCqwvCad7S3W/94FYXZPYerOcZMK8/jgWQeT72bE+z98as33V6HOHqgigLUaMIt5r06NOhUe4giAKeXawPrT0OwjNrkOgzC6FZp7EhAh1udx+aWkUIMpQBCkMgiMDoWa1TH5gKiplmIDBEwPrIrWvUeHokM1OsoYgoDIEEAsejtz+eXEzUSxs0aoRMGxEkIWs0WYcAgtTJJZEkEECQBKg0WYcAgtTJJZEkEECQBKg0WYcAgtTJJZEkEECQBKg0WYcAgtTJJZEkEECQBKg0WYcAgtTJJZEkEJAgut2ZDQIQeIFAxhsjAA2BMgQQpEwqCSSDAIJkUKXNMgQQpEwqCSSDAIJkUKXNMgQQpEwqCSSDAIJkUKXNMgQQpEwqCSSDAIJkUKXNMgQQpEwqCSSDAIJkUKXNMgQQpEwqCSSDAIJkUKXNMgQQpEwqCSSDAIJkUKXNMgQQpEwqCSSDAIJkUKXNMgQQpEwqCSSDAIJkUKXNMgQQpEwqCSSDAIJkUKXNMgQQpEwqCSSDAIJkUKXNMgQQpEwqCSSDAIJkUKXNMgQQpEwqCSSDAIJkUKXNMgQQpEwqCSSDwH9VSW7Y0qgBogAAAABJRU5ErkJggg==;" vertex="1" parent="1">
          <mxGeometry x="57" y="242.4966564941406" width="32" height="32" as="geometry" />
        </mxCell>
      </root>
    </mxGraphModel>
  </diagram>
</mxfile>
